<svg xmlns="http://www.w3.org/2000/svg" viewBox="0 0 296 56" width="296" height="56">
  <defs>
    <linearGradient id="g1" x1="0%" y1="0%" x2="100%" y2="100%">
      <stop offset="0%" stop-color="#0F766E"/>
      <stop offset="100%" stop-color="#14B8A6"/>
    </linearGradient>
  </defs>

  <!-- Icon mark -->
  <g transform="translate(4,4)">
    <path d="M 24.00,1.00 L 25.34,12.08 L 29.12,1.58 L 27.96,12.67 L 33.98,3.28 L 30.38,13.84 L 38.34,6.02 L 32.49,15.51 L 41.98,9.66 L 34.16,17.62 L 44.72,14.02 L 35.33,20.04 L 46.42,18.88 L 35.92,22.66 L 47.00,24.00 L 35.92,25.34 L 46.42,29.12 L 35.33,27.96 L 44.72,33.98 L 34.16,30.38 L 41.98,38.34 L 32.49,32.49 L 38.34,41.98 L 30.38,34.16 L 33.98,44.72 L 27.96,35.33 L 29.12,46.42 L 25.34,35.92 L 24.00,47.00 L 22.66,35.92 L 18.88,46.42 L 20.04,35.33 L 14.02,44.72 L 17.62,34.16 L 9.66,41.98 L 15.51,32.49 L 6.02,38.34 L 13.84,30.38 L 3.28,33.98 L 12.67,27.96 L 1.58,29.12 L 12.08,25.34 L 1.00,24.00 L 12.08,22.66 L 1.58,18.88 L 12.67,20.04 L 3.28,14.02 L 13.84,17.62 L 6.02,9.66 L 15.51,15.51 L 9.66,6.02 L 17.62,13.84 L 14.02,3.28 L 20.04,12.67 L 18.88,1.58 L 22.66,12.08 Z" fill="url(#g1)"/>
  </g>

  <!-- Wordmark: Loca + talyze split -->
  <text x="60" y="37" font-family="DM Sans, Helvetica Neue, Arial, sans-serif" font-size="26" font-weight="800" letter-spacing="-0.04em">
    <tspan fill="#0F766E">Loca</tspan><tspan fill="#14B8A6">talyze</tspan>
  </text>
</svg>